<svg width="32" height="32" viewBox="0 0 32 32" fill="none" xmlns="http://www.w3.org/2000/svg">
  <!-- Optimized favicon version - simpler for small sizes -->

  <!-- Outer rays -->
  <g id="rays" fill="#1F2647">
    <!-- Top -->
    <rect x="14.5" y="2" width="3" height="6" rx="0.5"/>
    <!-- Top-right -->
    <rect x="22" y="5.5" width="3" height="6" rx="0.5" transform="rotate(45 23.5 8.5)"/>
    <!-- Right -->
    <rect x="24" y="14.5" width="6" height="3" rx="0.5"/>
    <!-- Bottom-right -->
    <rect x="22" y="20.5" width="3" height="6" rx="0.5" transform="rotate(135 23.5 23.5)"/>
    <!-- Bottom -->
    <rect x="14.5" y="24" width="3" height="6" rx="0.5"/>
    <!-- Bottom-left -->
    <rect x="7" y="20.5" width="3" height="6" rx="0.5" transform="rotate(-135 8.5 23.5)"/>
    <!-- Left -->
    <rect x="2" y="14.5" width="6" height="3" rx="0.5"/>
    <!-- Top-left -->
    <rect x="7" y="5.5" width="3" height="6" rx="0.5" transform="rotate(-45 8.5 8.5)"/>
  </g>

  <!-- Center sun circle -->
  <circle cx="16" cy="16" r="7.5" fill="#1F2647"/>

  <!-- Solar panel grid -->
  <g stroke="white" stroke-width="0.6" opacity="0.25">
    <line x1="16" y1="9.5" x2="16" y2="22.5"/>
    <line x1="9.5" y1="16" x2="22.5" y2="16"/>
    <line x1="12.5" y1="9.5" x2="12.5" y2="22.5"/>
    <line x1="19.5" y1="9.5" x2="19.5" y2="22.5"/>
    <line x1="9.5" y1="12.5" x2="22.5" y2="12.5"/>
    <line x1="9.5" y1="19.5" x2="22.5" y2="19.5"/>
  </g>
</svg>
